{
    "asset" : {
        "generator" : "Khronos glTF Blender I/O v1.2.75",
        "version" : "2.0"
    },
    "scene" : 0,
    "scenes" : [
        {
            "name" : "Scene",
            "nodes" : [
                0,
                1,
                2,
                3,
                4,
                5
            ]
        }
    ],
    "nodes" : [
        {
            "mesh" : 0,
            "name" : "number_mesh_01",
            "translation" : [
                152.61807250976562,
                0,
                -7.499999523162842
            ]
        },
        {
            "mesh" : 1,
            "name" : "number_mesh_02",
            "translation" : [
                152.61807250976562,
                0,
                -4.499999523162842
            ]
        },
        {
            "mesh" : 2,
            "name" : "number_mesh_03",
            "translation" : [
                152.61807250976562,
                0,
                -1.672264814376831
            ]
        },
        {
            "mesh" : 3,
            "name" : "number_mesh_04",
            "translation" : [
                152.61807250976562,
                0,
                1.4999998807907104
            ]
        },
        {
            "mesh" : 4,
            "name" : "number_mesh_05",
            "translation" : [
                152.61807250976562,
                0,
                4.5
            ]
        },
        {
            "mesh" : 5,
            "name" : "number_mesh_06",
            "translation" : [
                152.61807250976562,
                0,
                7.5
            ]
        }
    ],
    "materials" : [
        {
            "doubleSided" : true,
            "emissiveFactor" : [
                0,
                0,
                0
            ],
            "name" : "lines_abstract",
            "pbrMetallicRoughness" : {
                "baseColorTexture" : {
                    "index" : 0,
                    "texCoord" : 0
                },
                "metallicFactor" : 0,
                "roughnessFactor" : 0.5
            }
        }
    ],
    "meshes" : [
        {
            "name" : "Text.006",
            "primitives" : [
                {
                    "attributes" : {
                        "POSITION" : 0,
                        "NORMAL" : 1,
                        "TEXCOORD_0" : 2
                    },
                    "indices" : 3,
                    "material" : 0
                }
            ]
        },
        {
            "name" : "Text.005",
            "primitives" : [
                {
                    "attributes" : {
                        "POSITION" : 4,
                        "NORMAL" : 5,
                        "TEXCOORD_0" : 6
                    },
                    "indices" : 7,
                    "material" : 0
                }
            ]
        },
        {
            "name" : "Text.004",
            "primitives" : [
                {
                    "attributes" : {
                        "POSITION" : 8,
                        "NORMAL" : 9,
                        "TEXCOORD_0" : 10
                    },
                    "indices" : 11,
                    "material" : 0
                }
            ]
        },
        {
            "name" : "Text.003",
            "primitives" : [
                {
                    "attributes" : {
                        "POSITION" : 12,
                        "NORMAL" : 13,
                        "TEXCOORD_0" : 14
                    },
                    "indices" : 15,
                    "material" : 0
                }
            ]
        },
        {
            "name" : "Text.001",
            "primitives" : [
                {
                    "attributes" : {
                        "POSITION" : 16,
                        "NORMAL" : 17,
                        "TEXCOORD_0" : 18
                    },
                    "indices" : 19,
                    "material" : 0
                }
            ]
        },
        {
            "name" : "Text.002",
            "primitives" : [
                {
                    "attributes" : {
                        "POSITION" : 20,
                        "NORMAL" : 21,
                        "TEXCOORD_0" : 22
                    },
                    "indices" : 23,
                    "material" : 0
                }
            ]
        }
    ],
    "textures" : [
        {
            "source" : 0
        }
    ],
    "images" : [
        {
            "mimeType" : "image/png",
            "name" : "abstract_lines",
            "uri" : "abstract_lines.png"
        }
    ],
    "accessors" : [
        {
            "bufferView" : 0,
            "componentType" : 5126,
            "count" : 58,
            "max" : [
                0.899993896484375,
                3.24324369430542,
                0.9150581359863281
            ],
            "min" : [
                -0.9000091552734375,
                0,
                -0.9150576591491699
            ],
            "type" : "VEC3"
        },
        {
            "bufferView" : 1,
            "componentType" : 5126,
            "count" : 58,
            "type" : "VEC3"
        },
        {
            "bufferView" : 2,
            "componentType" : 5126,
            "count" : 58,
            "type" : "VEC2"
        },
        {
            "bufferView" : 3,
            "componentType" : 5123,
            "count" : 72,
            "type" : "SCALAR"
        },
        {
            "bufferView" : 4,
            "componentType" : 5126,
            "count" : 1470,
            "max" : [
                0.899993896484375,
                3.3451738357543945,
                1.4200773239135742
            ],
            "min" : [
                -0.9000091552734375,
                0,
                -1.4200773239135742
            ],
            "type" : "VEC3"
        },
        {
            "bufferView" : 5,
            "componentType" : 5126,
            "count" : 1470,
            "type" : "VEC3"
        },
        {
            "bufferView" : 6,
            "componentType" : 5126,
            "count" : 1470,
            "type" : "VEC2"
        },
        {
            "bufferView" : 7,
            "componentType" : 5123,
            "count" : 1764,
            "type" : "SCALAR"
        },
        {
            "bufferView" : 8,
            "componentType" : 5126,
            "count" : 57,
            "max" : [
                0.899993896484375,
                3.243243455886841,
                0.9150583148002625
            ],
            "min" : [
                -0.9000091552734375,
                0,
                -0.9150583744049072
            ],
            "type" : "VEC3"
        },
        {
            "bufferView" : 9,
            "componentType" : 5126,
            "count" : 57,
            "type" : "VEC3"
        },
        {
            "bufferView" : 10,
            "componentType" : 5126,
            "count" : 57,
            "type" : "VEC2"
        },
        {
            "bufferView" : 11,
            "componentType" : 5123,
            "count" : 72,
            "type" : "SCALAR"
        },
        {
            "bufferView" : 12,
            "componentType" : 5126,
            "count" : 1942,
            "max" : [
                0.899993896484375,
                3.3451738357543945,
                1.443243145942688
            ],
            "min" : [
                -0.9000091552734375,
                0,
                -1.4432432651519775
            ],
            "type" : "VEC3"
        },
        {
            "bufferView" : 13,
            "componentType" : 5126,
            "count" : 1942,
            "type" : "VEC3"
        },
        {
            "bufferView" : 14,
            "componentType" : 5126,
            "count" : 1942,
            "type" : "VEC2"
        },
        {
            "bufferView" : 15,
            "componentType" : 5123,
            "count" : 2328,
            "type" : "SCALAR"
        },
        {
            "bufferView" : 16,
            "componentType" : 5126,
            "count" : 960,
            "max" : [
                0.899993896484375,
                3.3451738357543945,
                1.4942083358764648
            ],
            "min" : [
                -0.9000091552734375,
                0,
                -1.4942083358764648
            ],
            "type" : "VEC3"
        },
        {
            "bufferView" : 17,
            "componentType" : 5126,
            "count" : 960,
            "type" : "VEC3"
        },
        {
            "bufferView" : 18,
            "componentType" : 5126,
            "count" : 960,
            "type" : "VEC2"
        },
        {
            "bufferView" : 19,
            "componentType" : 5123,
            "count" : 1152,
            "type" : "SCALAR"
        },
        {
            "bufferView" : 20,
            "componentType" : 5126,
            "count" : 908,
            "max" : [
                0.899993896484375,
                3.294208526611328,
                1.3691120147705078
            ],
            "min" : [
                -0.9000091552734375,
                0,
                -1.3691120147705078
            ],
            "type" : "VEC3"
        },
        {
            "bufferView" : 21,
            "componentType" : 5126,
            "count" : 908,
            "type" : "VEC3"
        },
        {
            "bufferView" : 22,
            "componentType" : 5126,
            "count" : 908,
            "type" : "VEC2"
        },
        {
            "bufferView" : 23,
            "componentType" : 5123,
            "count" : 1092,
            "type" : "SCALAR"
        }
    ],
    "bufferViews" : [
        {
            "buffer" : 0,
            "byteLength" : 696,
            "byteOffset" : 0
        },
        {
            "buffer" : 0,
            "byteLength" : 696,
            "byteOffset" : 696
        },
        {
            "buffer" : 0,
            "byteLength" : 464,
            "byteOffset" : 1392
        },
        {
            "buffer" : 0,
            "byteLength" : 144,
            "byteOffset" : 1856
        },
        {
            "buffer" : 0,
            "byteLength" : 17640,
            "byteOffset" : 2000
        },
        {
            "buffer" : 0,
            "byteLength" : 17640,
            "byteOffset" : 19640
        },
        {
            "buffer" : 0,
            "byteLength" : 11760,
            "byteOffset" : 37280
        },
        {
            "buffer" : 0,
            "byteLength" : 3528,
            "byteOffset" : 49040
        },
        {
            "buffer" : 0,
            "byteLength" : 684,
            "byteOffset" : 52568
        },
        {
            "buffer" : 0,
            "byteLength" : 684,
            "byteOffset" : 53252
        },
        {
            "buffer" : 0,
            "byteLength" : 456,
            "byteOffset" : 53936
        },
        {
            "buffer" : 0,
            "byteLength" : 144,
            "byteOffset" : 54392
        },
        {
            "buffer" : 0,
            "byteLength" : 23304,
            "byteOffset" : 54536
        },
        {
            "buffer" : 0,
            "byteLength" : 23304,
            "byteOffset" : 77840
        },
        {
            "buffer" : 0,
            "byteLength" : 15536,
            "byteOffset" : 101144
        },
        {
            "buffer" : 0,
            "byteLength" : 4656,
            "byteOffset" : 116680
        },
        {
            "buffer" : 0,
            "byteLength" : 11520,
            "byteOffset" : 121336
        },
        {
            "buffer" : 0,
            "byteLength" : 11520,
            "byteOffset" : 132856
        },
        {
            "buffer" : 0,
            "byteLength" : 7680,
            "byteOffset" : 144376
        },
        {
            "buffer" : 0,
            "byteLength" : 2304,
            "byteOffset" : 152056
        },
        {
            "buffer" : 0,
            "byteLength" : 10896,
            "byteOffset" : 154360
        },
        {
            "buffer" : 0,
            "byteLength" : 10896,
            "byteOffset" : 165256
        },
        {
            "buffer" : 0,
            "byteLength" : 7264,
            "byteOffset" : 176152
        },
        {
            "buffer" : 0,
            "byteLength" : 2184,
            "byteOffset" : 183416
        }
    ],
    "buffers" : [
        {
            "byteLength" : 185600,
            "uri" : "numbers_mesh.bin"
        }
    ]
}
